<svg width="18" height="13" viewBox="0 0 18 13" fill="none" xmlns="http://www.w3.org/2000/svg">
<path d="M0.0493609 12V10.8068L3.74077 6.98224C4.13494 6.56676 4.45987 6.20277 4.71555 5.89027C4.97479 5.57422 5.16832 5.27415 5.29617 4.99006C5.42401 4.70597 5.48793 4.40412 5.48793 4.08452C5.48793 3.7223 5.4027 3.4098 5.23224 3.14702C5.06179 2.88068 4.82919 2.67649 4.53445 2.53445C4.2397 2.38885 3.90767 2.31605 3.53835 2.31605C3.14773 2.31605 2.80682 2.39595 2.51562 2.55575C2.22443 2.71555 2.00071 2.94105 1.84446 3.23224C1.68821 3.52344 1.61009 3.86435 1.61009 4.25497H0.0387075C0.0387075 3.59091 0.191406 3.0103 0.496804 2.51314C0.802202 2.01598 1.22124 1.63068 1.75391 1.35724C2.28658 1.08026 2.89205 0.941761 3.57031 0.941761C4.25568 0.941761 4.85938 1.07848 5.38139 1.35192C5.90696 1.6218 6.31712 1.99112 6.61186 2.45987C6.90661 2.92507 7.05398 3.45064 7.05398 4.03658C7.05398 4.44141 6.97763 4.83736 6.82493 5.22443C6.67578 5.61151 6.41477 6.04297 6.0419 6.51882C5.66903 6.99112 5.15057 7.56463 4.48651 8.23935L2.31854 10.5085V10.5884H7.22976V12H0.0493609ZM13.0465 12.1811C12.2049 12.1776 11.4858 11.9556 10.8892 11.5153C10.2926 11.0749 9.83629 10.4339 9.52024 9.59233C9.20419 8.75071 9.04616 7.73686 9.04616 6.55078C9.04616 5.36825 9.20419 4.35795 9.52024 3.51989C9.83984 2.68182 10.2979 2.04261 10.8945 1.60227C11.4947 1.16193 12.212 0.941761 13.0465 0.941761C13.881 0.941761 14.5966 1.16371 15.1932 1.6076C15.7898 2.04794 16.2461 2.68714 16.5621 3.52521C16.8817 4.35973 17.0415 5.36825 17.0415 6.55078C17.0415 7.74041 16.8835 8.75604 16.5675 9.59766C16.2514 10.4357 15.7951 11.0767 15.1985 11.5206C14.6019 11.9609 13.8846 12.1811 13.0465 12.1811ZM13.0465 10.7589C13.7852 10.7589 14.3622 10.3984 14.7777 9.67756C15.1967 8.95668 15.4062 7.91442 15.4062 6.55078C15.4062 5.64524 15.3104 4.87997 15.1186 4.25497C14.9304 3.62642 14.6587 3.15057 14.3036 2.82741C13.9521 2.50071 13.533 2.33736 13.0465 2.33736C12.3114 2.33736 11.7344 2.69957 11.3153 3.42401C10.8963 4.14844 10.685 5.1907 10.6815 6.55078C10.6815 7.45987 10.7756 8.22869 10.9638 8.85724C11.1555 9.48224 11.4272 9.95632 11.7788 10.2795C12.1303 10.5991 12.5529 10.7589 13.0465 10.7589Z" fill="#F4F4F4"/>
</svg>
