<svg width="74" height="41" viewBox="0 0 74 41" fill="none" xmlns="http://www.w3.org/2000/svg">
<rect x="1.49487" y="1.41528" width="71.3907" height="38.5887" rx="19.2943" fill="#FE8B46"/>
<path d="M24.3088 26.2096V16.0278H25.845V24.8872H30.4587V26.2096H24.3088ZM32.0918 26.2096V18.5732H33.5783V26.2096H32.0918ZM32.8425 17.395C32.584 17.395 32.3619 17.3088 32.1763 17.1364C31.994 16.9608 31.9029 16.752 31.9029 16.51C31.9029 16.2648 31.994 16.0559 32.1763 15.8836C32.3619 15.7079 32.584 15.6201 32.8425 15.6201C33.1011 15.6201 33.3215 15.7079 33.5038 15.8836C33.6894 16.0559 33.7822 16.2648 33.7822 16.51C33.7822 16.752 33.6894 16.9608 33.5038 17.1364C33.3215 17.3088 33.1011 17.395 32.8425 17.395ZM42.1108 18.5732L39.3416 26.2096H37.7507L34.9766 18.5732H36.5725L38.5064 24.4497H38.586L40.5149 18.5732H42.1108ZM46.5393 26.3637C45.7869 26.3637 45.1389 26.203 44.5954 25.8815C44.0551 25.5567 43.6375 25.1009 43.3425 24.5143C43.0509 23.9243 42.905 23.2333 42.905 22.4411C42.905 21.6589 43.0509 20.9695 43.3425 20.3729C43.6375 19.7764 44.0485 19.3107 44.5755 18.9759C45.1058 18.6412 45.7256 18.4738 46.4349 18.4738C46.8657 18.4738 47.2833 18.5451 47.6877 18.6876C48.0921 18.8301 48.455 19.0538 48.7765 19.3587C49.098 19.6637 49.3515 20.0597 49.5371 20.547C49.7227 21.0309 49.8155 21.6192 49.8155 22.3119V22.8389H43.7452V21.7252H48.3589C48.3589 21.3341 48.2793 20.9878 48.1202 20.6862C47.9611 20.3812 47.7374 20.1409 47.4491 19.9653C47.164 19.7896 46.8293 19.7018 46.4448 19.7018C46.0272 19.7018 45.6626 19.8045 45.3511 20.01C45.0428 20.2122 44.8042 20.4774 44.6351 20.8055C44.4694 21.1303 44.3866 21.4833 44.3866 21.8644V22.7345C44.3866 23.2449 44.4761 23.6791 44.655 24.037C44.8373 24.395 45.0909 24.6684 45.4157 24.8573C45.7405 25.0429 46.12 25.1357 46.5542 25.1357C46.8359 25.1357 47.0928 25.096 47.3248 25.0164C47.5568 24.9336 47.7573 24.8109 47.9263 24.6485C48.0954 24.4861 48.2246 24.2856 48.3141 24.047L49.7211 24.3005C49.6084 24.7148 49.4062 25.0777 49.1145 25.3893C48.8262 25.6975 48.4633 25.9378 48.0258 26.1102C47.5916 26.2792 47.0961 26.3637 46.5393 26.3637Z" fill="white"/>
<rect x="1.49487" y="1.41528" width="71.3907" height="38.5887" rx="19.2943" stroke="white"/>
</svg>
