<svg width="231" height="58" viewBox="0 0 231 58" fill="none" xmlns="http://www.w3.org/2000/svg">
<rect x="0.5" y="0.5" width="230" height="57" rx="13.5" stroke="white"/>
<path d="M35.1023 36V21.4545H35.9901V35.1761H43.0923V36H35.1023ZM50.1023 36.2273C49.2027 36.2273 48.4025 35.9858 47.7017 35.5028C47.0009 35.0152 46.4493 34.3452 46.0469 33.4929C45.6444 32.6406 45.4432 31.67 45.4432 30.581C45.4432 29.4872 45.6444 28.5166 46.0469 27.669C46.4493 26.8168 47.0009 26.1468 47.7017 25.6591C48.4025 25.1714 49.2027 24.9276 50.1023 24.9276C51.0019 24.9276 51.8021 25.1714 52.5028 25.6591C53.2036 26.1468 53.7552 26.8168 54.1577 27.669C54.5601 28.5213 54.7614 29.492 54.7614 30.581C54.7614 31.67 54.5601 32.6406 54.1577 33.4929C53.7552 34.3452 53.2036 35.0152 52.5028 35.5028C51.8021 35.9858 51.0019 36.2273 50.1023 36.2273ZM50.1023 35.4247C50.8646 35.4247 51.5298 35.2093 52.098 34.7784C52.6709 34.3475 53.1136 33.7652 53.4261 33.0312C53.7434 32.2973 53.902 31.4806 53.902 30.581C53.902 29.6813 53.7434 28.867 53.4261 28.1378C53.1089 27.4039 52.6662 26.8215 52.098 26.3906C51.5298 25.955 50.8646 25.7372 50.1023 25.7372C49.34 25.7372 48.6747 25.955 48.1065 26.3906C47.5384 26.8215 47.0956 27.4039 46.7784 28.1378C46.4612 28.867 46.3026 29.6813 46.3026 30.581C46.3026 31.4806 46.4588 32.2973 46.7713 33.0312C47.0885 33.7652 47.5312 34.3475 48.0994 34.7784C48.6723 35.2093 49.34 35.4247 50.1023 35.4247ZM58.6126 28.9261V36H57.7461V25.0909H58.5913V26.8168H58.6765C58.9322 26.2533 59.3417 25.8011 59.9052 25.4602C60.4686 25.1193 61.1386 24.9489 61.9151 24.9489C62.649 24.9489 63.293 25.1051 63.8469 25.4176C64.4057 25.7301 64.8413 26.1752 65.1538 26.7528C65.471 27.3258 65.6296 28.0099 65.6296 28.8054V36H64.7631V28.8409C64.7631 27.9129 64.4862 27.1671 63.9322 26.6037C63.3829 26.0355 62.6561 25.7514 61.7518 25.7514C61.1457 25.7514 60.6059 25.884 60.1325 26.1491C59.659 26.4143 59.2873 26.786 59.0174 27.2642C58.7475 27.7377 58.6126 28.2917 58.6126 28.9261ZM73.1651 40.3182C72.488 40.3182 71.8796 40.2282 71.3398 40.0483C70.8001 39.8731 70.3408 39.6222 69.962 39.2955C69.5879 38.9688 69.3015 38.5805 69.1026 38.1307L69.8271 37.7045C69.988 38.0549 70.2177 38.3674 70.516 38.642C70.8143 38.9167 71.1836 39.1321 71.6239 39.2884C72.069 39.4446 72.5827 39.5227 73.1651 39.5227C74.2163 39.5227 75.0472 39.2505 75.658 38.706C76.2736 38.1662 76.5813 37.3376 76.5813 36.2202V33.5071H76.4961C76.3304 33.9806 76.0842 34.402 75.7575 34.7713C75.4355 35.1359 75.0401 35.4223 74.5714 35.6307C74.1026 35.839 73.57 35.9432 72.9734 35.9432C72.1116 35.9432 71.354 35.7206 70.7006 35.2756C70.0472 34.8305 69.5382 34.2055 69.1737 33.4006C68.8091 32.5909 68.6268 31.6392 68.6268 30.5455C68.6268 29.4517 68.8043 28.4834 69.1594 27.6406C69.5193 26.7931 70.0259 26.1302 70.6793 25.652C71.3327 25.169 72.0998 24.9276 72.9805 24.9276C73.6102 24.9276 74.1547 25.0483 74.614 25.2898C75.078 25.5265 75.4663 25.8414 75.7788 26.2344C76.0913 26.6274 76.3327 27.0582 76.5032 27.527H76.6026V25.0909H77.4407V36.2557C77.4407 37.1648 77.2608 37.92 76.9009 38.5213C76.5458 39.1226 76.0463 39.5724 75.4023 39.8707C74.7631 40.169 74.0174 40.3182 73.1651 40.3182ZM73.0515 35.1406C73.7807 35.1406 74.408 34.956 74.9336 34.5866C75.4639 34.2126 75.8711 33.6823 76.1552 32.9957C76.444 32.3045 76.5884 31.4853 76.5884 30.5384C76.5884 29.6198 76.4487 28.7983 76.1694 28.0739C75.89 27.3494 75.4852 26.7789 74.9549 26.3622C74.4246 25.9455 73.7901 25.7372 73.0515 25.7372C72.2987 25.7372 71.6571 25.9503 71.1268 26.3764C70.5965 26.7978 70.1893 27.3707 69.9052 28.0952C69.6258 28.8196 69.4862 29.634 69.4862 30.5384C69.4862 31.4474 69.6282 32.2476 69.9123 32.9389C70.1964 33.6255 70.6036 34.1652 71.1339 34.5582C71.6642 34.9465 72.3034 35.1406 73.0515 35.1406ZM89.6016 36.2344C88.9718 36.2344 88.3942 36.1089 87.8686 35.858C87.3478 35.607 86.9287 35.2401 86.6115 34.7571C86.299 34.2741 86.1428 33.687 86.1428 32.9957C86.1428 32.5412 86.2232 32.1411 86.3842 31.7955C86.5452 31.4498 86.7938 31.1515 87.13 30.9006C87.4661 30.6496 87.897 30.4437 88.4226 30.2827C88.9482 30.117 89.5755 29.9891 90.3047 29.8991C90.8587 29.8329 91.3535 29.7689 91.7891 29.7074C92.2247 29.6411 92.5656 29.5393 92.8118 29.402C93.0627 29.2647 93.1882 29.0563 93.1882 28.777V28.3224C93.1882 27.527 92.9373 26.8949 92.4354 26.4261C91.9335 25.9574 91.2422 25.723 90.3615 25.723C89.5803 25.723 88.9221 25.8958 88.3871 26.2415C87.8568 26.5824 87.4851 27.0227 87.272 27.5625L86.4553 27.2571C86.6636 26.7363 86.9643 26.303 87.3572 25.9574C87.755 25.6117 88.2095 25.3537 88.7209 25.1832C89.237 25.0128 89.7768 24.9276 90.3402 24.9276C90.8279 24.9276 91.2919 24.9962 91.7322 25.1335C92.1773 25.2708 92.5727 25.4792 92.9183 25.7585C93.2687 26.0379 93.5457 26.3954 93.7493 26.831C93.9529 27.2618 94.0547 27.7779 94.0547 28.3793V36H93.1882V34.0327H93.1243C92.9349 34.4399 92.6745 34.8116 92.343 35.1477C92.0163 35.4792 91.621 35.7443 91.157 35.9432C90.6977 36.1373 90.1792 36.2344 89.6016 36.2344ZM89.6868 35.4318C90.3686 35.4318 90.9723 35.2661 91.4979 34.9347C92.0282 34.5985 92.4425 34.1392 92.7408 33.5568C93.0391 32.9744 93.1882 32.3139 93.1882 31.5753V29.9702C93.0793 30.0649 92.9207 30.1501 92.7124 30.2259C92.5088 30.2969 92.2768 30.3608 92.0163 30.4176C91.7607 30.4697 91.4908 30.517 91.2067 30.5597C90.9273 30.5975 90.6551 30.633 90.3899 30.6662C89.5945 30.7609 88.9458 30.9077 88.4439 31.1065C87.9467 31.3007 87.5821 31.5563 87.3501 31.8736C87.1229 32.1908 87.0092 32.5743 87.0092 33.0241C87.0092 33.7675 87.2649 34.3546 87.7763 34.7855C88.2876 35.2164 88.9245 35.4318 89.6868 35.4318ZM101.43 36.2273C100.554 36.2273 99.7898 35.9858 99.1364 35.5028C98.483 35.0199 97.9763 34.3546 97.6165 33.5071C97.2614 32.6548 97.0838 31.6771 97.0838 30.5739C97.0838 29.4801 97.2637 28.5095 97.6236 27.6619C97.9882 26.8097 98.4972 26.142 99.1506 25.6591C99.804 25.1714 100.566 24.9276 101.438 24.9276C102.062 24.9276 102.605 25.0483 103.064 25.2898C103.528 25.5265 103.916 25.8414 104.229 26.2344C104.546 26.6274 104.787 27.0582 104.953 27.527H105.038V21.4545H105.898V36H105.06V33.6207H104.953C104.778 34.0895 104.534 34.5227 104.222 34.9205C103.909 35.3134 103.521 35.6307 103.057 35.8722C102.593 36.1089 102.051 36.2273 101.43 36.2273ZM101.509 35.4247C102.247 35.4247 102.879 35.214 103.405 34.7926C103.935 34.3665 104.34 33.7888 104.619 33.0597C104.903 32.3258 105.045 31.4948 105.045 30.5668C105.045 29.6387 104.903 28.8125 104.619 28.0881C104.34 27.3589 103.935 26.786 103.405 26.3693C102.879 25.9479 102.247 25.7372 101.509 25.7372C100.76 25.7372 100.119 25.9503 99.5838 26.3764C99.0535 26.7978 98.6463 27.3731 98.3622 28.1023C98.0829 28.8314 97.9432 29.6529 97.9432 30.5668C97.9432 31.4806 98.0829 32.3045 98.3622 33.0384C98.6463 33.7723 99.0535 34.3546 99.5838 34.7855C100.119 35.2116 100.76 35.4247 101.509 35.4247ZM113.54 36.2273C112.664 36.2273 111.899 35.9858 111.246 35.5028C110.592 35.0199 110.086 34.3546 109.726 33.5071C109.371 32.6548 109.193 31.6771 109.193 30.5739C109.193 29.4801 109.373 28.5095 109.733 27.6619C110.098 26.8097 110.607 26.142 111.26 25.6591C111.913 25.1714 112.676 24.9276 113.547 24.9276C114.172 24.9276 114.714 25.0483 115.173 25.2898C115.637 25.5265 116.026 25.8414 116.338 26.2344C116.655 26.6274 116.897 27.0582 117.062 27.527H117.148V21.4545H118.007V36H117.169V33.6207H117.062C116.887 34.0895 116.643 34.5227 116.331 34.9205C116.018 35.3134 115.63 35.6307 115.166 35.8722C114.702 36.1089 114.16 36.2273 113.54 36.2273ZM113.618 35.4247C114.357 35.4247 114.989 35.214 115.514 34.7926C116.045 34.3665 116.449 33.7888 116.729 33.0597C117.013 32.3258 117.155 31.4948 117.155 30.5668C117.155 29.6387 117.013 28.8125 116.729 28.0881C116.449 27.3589 116.045 26.786 115.514 26.3693C114.989 25.9479 114.357 25.7372 113.618 25.7372C112.87 25.7372 112.228 25.9503 111.693 26.3764C111.163 26.7978 110.756 27.3731 110.472 28.1023C110.192 28.8314 110.053 29.6529 110.053 30.5668C110.053 31.4806 110.192 32.3045 110.472 33.0384C110.756 33.7723 111.163 34.3546 111.693 34.7855C112.228 35.2116 112.87 35.4247 113.618 35.4247ZM126.161 36.2273C125.176 36.2273 124.319 35.9834 123.589 35.4957C122.86 35.008 122.297 34.3404 121.899 33.4929C121.501 32.6454 121.303 31.6795 121.303 30.5952C121.303 29.5062 121.501 28.5355 121.899 27.6832C122.302 26.831 122.853 26.1586 123.554 25.6662C124.255 25.1738 125.055 24.9276 125.955 24.9276C126.565 24.9276 127.143 25.0507 127.688 25.2969C128.237 25.5384 128.72 25.8887 129.136 26.348C129.558 26.8073 129.887 27.3613 130.124 28.0099C130.365 28.6586 130.486 29.3878 130.486 30.1974V30.7372H121.849V29.9489H129.619C129.619 29.1581 129.458 28.4455 129.136 27.8111C128.814 27.1766 128.376 26.6723 127.822 26.2983C127.268 25.9242 126.646 25.7372 125.955 25.7372C125.23 25.7372 124.584 25.9408 124.016 26.348C123.452 26.7505 123.005 27.295 122.673 27.9815C122.347 28.6681 122.176 29.4351 122.162 30.2827V30.6378C122.162 31.5469 122.321 32.3636 122.638 33.0881C122.96 33.8078 123.419 34.3783 124.016 34.7997C124.612 35.2164 125.327 35.4247 126.161 35.4247C126.757 35.4247 127.266 35.3253 127.688 35.1264C128.114 34.9228 128.462 34.6766 128.732 34.3878C129.001 34.099 129.205 33.8196 129.342 33.5497L130.131 33.8693C129.965 34.2339 129.707 34.5985 129.357 34.9631C129.011 35.3229 128.571 35.6236 128.036 35.8651C127.505 36.1065 126.88 36.2273 126.161 36.2273ZM137.212 36.2273C136.336 36.2273 135.571 35.9858 134.918 35.5028C134.264 35.0199 133.758 34.3546 133.398 33.5071C133.043 32.6548 132.865 31.6771 132.865 30.5739C132.865 29.4801 133.045 28.5095 133.405 27.6619C133.769 26.8097 134.278 26.142 134.932 25.6591C135.585 25.1714 136.348 24.9276 137.219 24.9276C137.844 24.9276 138.386 25.0483 138.845 25.2898C139.309 25.5265 139.697 25.8414 140.01 26.2344C140.327 26.6274 140.569 27.0582 140.734 27.527H140.82V21.4545H141.679V36H140.841V33.6207H140.734C140.559 34.0895 140.315 34.5227 140.003 34.9205C139.69 35.3134 139.302 35.6307 138.838 35.8722C138.374 36.1089 137.832 36.2273 137.212 36.2273ZM137.29 35.4247C138.028 35.4247 138.661 35.214 139.186 34.7926C139.716 34.3665 140.121 33.7888 140.401 33.0597C140.685 32.3258 140.827 31.4948 140.827 30.5668C140.827 29.6387 140.685 28.8125 140.401 28.0881C140.121 27.3589 139.716 26.786 139.186 26.3693C138.661 25.9479 138.028 25.7372 137.29 25.7372C136.542 25.7372 135.9 25.9503 135.365 26.3764C134.835 26.7978 134.428 27.3731 134.143 28.1023C133.864 28.8314 133.724 29.6529 133.724 30.5668C133.724 31.4806 133.864 32.3045 134.143 33.0384C134.428 33.7723 134.835 34.3546 135.365 34.7855C135.9 35.2116 136.542 35.4247 137.29 35.4247Z" fill="white"/>
<path d="M189.999 19.9998C185.03 19.9998 180.999 24.031 180.999 28.9998C180.999 33.9685 185.03 37.9998 189.999 37.9998C194.967 37.9998 198.999 33.9685 198.999 28.9998C198.999 24.031 194.967 19.9998 189.999 19.9998Z" stroke="white" stroke-width="1.00189" stroke-miterlimit="10"/>
<path d="M194.5 27.1248L189.999 31.6254L185.499 27.1248" stroke="white" stroke-width="1.00189" stroke-linecap="round" stroke-linejoin="round"/>
</svg>
